<svg version="1.2" xmlns="http://www.w3.org/2000/svg" viewBox="0 0 5000 5000" width="5000" height="5000">
	<title>2E199HP-ai</title>
	<style>
		tspan { white-space:pre } 
		.s0 { fill: #ffffff } 
		.s1 { fill: #cf0909 } 
	</style>
	<g id="_Artboards_">
	</g>
	<g id="Layer 1">
		<g id="&lt;Group&gt;">
			<path id="&lt;Path&gt;" class="s0" d="m5000 5000h-5000v-5000h5000z"/>
			<text id="Text layer 23" style="transform: matrix(1,0,0,1,0,0)" >
			</text>
		</g>
		<g id="&lt;Group&gt;">
			<g id="&lt;Group&gt;">
				<g id="&lt;Group&gt;">
					<path id="&lt;Path&gt;" class="s1" d="m2433 2119.5c-96.3-96.4-223.4-149.5-360.3-149.5-138.3 0-265.4 53.1-361.7 149.5-96.4 96.3-149.5 226.2-149.5 363 0 135.5 53.1 265.3 149.5 361.8 96.3 96.3 223.4 149.4 361.7 149.4 36.4 0 72.6-4.2 107.5-11.2l-78.1-115.9c-9.9 1.3-19.6 1.3-29.4 1.3-213.6 0-385.5-173-385.5-385.4 0-215.1 171.9-386.8 385.5-386.8 213.7 0 386.9 171.7 386.9 386.8 0 67.1-16.8 130-47.5 185.8l75.4 111.7c62.8-85.1 97.7-189.9 97.7-297.5 0-136.8-54.4-266.7-152.2-363z"/>
				</g>
				<g id="&lt;Group&gt;">
					<path id="&lt;Path&gt;" class="s1" d="m2402.4 2872.2l-70-103.4-33.4-50.3-41.9-67-2.8 1.4-103.4 65.6 78.3 116 71.1 106.1 60.1 89.4h148l-58.6-88z"/>
				</g>
				<g id="&lt;Group&gt;">
					<path id="&lt;Path&gt;" class="s1" d="m3438.5 2867.9h-680.2v125.8h680.2z"/>
				</g>
				<g id="&lt;Group&gt;">
					<path id="&lt;Path&gt;" class="s1" d="m3007.9 1182.2c-40.5-15.7-81.8-29.5-123.9-41.4-41.2-11.7-83.1-21.5-125.7-29.5v139.1 1491.9h125.7v-1459.1c42.3 13.3 83.7 28.9 123.9 46.5 451.5 196.7 767.9 647.2 767.9 1170.3 0 703.5-572.3 1275.9-1275.7 1275.9-703.6 0-1275.9-572.4-1275.9-1275.9 0-703.5 572.3-1275.9 1275.9-1275.9 45.3 0 90.2 2.4 134.3 7v-137c-44.2-4.2-89-6.4-134.3-6.4-778.8 0-1412.5 633.6-1412.5 1412.3 0 778.7 633.7 1412.3 1412.5 1412.3 778.7 0 1412.3-633.6 1412.3-1412.3 0-599.8-375.9-1113.5-904.5-1317.8z"/>
				</g>
			</g>
		</g>
	</g>
</svg>