<svg xmlns="http://www.w3.org/2000/svg" xmlns:xlink="http://www.w3.org/1999/xlink" version="1.0" x="0" y="0" width="2400" height="917.2454917675443" viewBox="22.347249145507813 68.5692416381836 295.30550170898437 112.86151672363282" preserveAspectRatio="xMidYMid meet" color-interpolation-filters="sRGB"><g><defs><linearGradient id="92" x1="0%" y1="0%" x2="100%" y2="0%"><stop offset="0%" stop-color="#fa71cd"></stop> <stop offset="100%" stop-color="#9b59b6"></stop></linearGradient><linearGradient id="93" x1="0%" y1="0%" x2="100%" y2="0%"><stop offset="0%" stop-color="#f9d423"></stop> <stop offset="100%" stop-color="#f83600"></stop></linearGradient><linearGradient id="94" x1="0%" y1="0%" x2="100%" y2="0%"><stop offset="0%" stop-color="#0064d2"></stop> <stop offset="100%" stop-color="#1cb0f6"></stop></linearGradient><linearGradient id="95" x1="0%" y1="0%" x2="100%" y2="0%"><stop offset="0%" stop-color="#f00978"></stop> <stop offset="100%" stop-color="#3f51b1"></stop></linearGradient><linearGradient id="96" x1="0%" y1="0%" x2="100%" y2="0%"><stop offset="0%" stop-color="#7873f5"></stop> <stop offset="100%" stop-color="#ec77ab"></stop></linearGradient><linearGradient id="97" x1="0%" y1="0%" x2="100%" y2="0%"><stop offset="0%" stop-color="#f9d423"></stop> <stop offset="100%" stop-color="#e14fad"></stop></linearGradient><linearGradient id="98" x1="0%" y1="0%" x2="100%" y2="0%"><stop offset="0%" stop-color="#009efd"></stop> <stop offset="100%" stop-color="#2af598"></stop></linearGradient><linearGradient id="99" x1="0%" y1="0%" x2="100%" y2="0%"><stop offset="0%" stop-color="#ffcc00"></stop> <stop offset="100%" stop-color="#00b140"></stop></linearGradient><linearGradient id="100" x1="0%" y1="0%" x2="100%" y2="0%"><stop offset="0%" stop-color="#d51007"></stop> <stop offset="100%" stop-color="#ff8177"></stop></linearGradient><linearGradient id="102" x1="0%" y1="0%" x2="100%" y2="0%"><stop offset="0%" stop-color="#a2b6df"></stop> <stop offset="100%" stop-color="#0c3483"></stop></linearGradient><linearGradient id="103" x1="0%" y1="0%" x2="100%" y2="0%"><stop offset="0%" stop-color="#7ac5d8"></stop> <stop offset="100%" stop-color="#eea2a2"></stop></linearGradient><linearGradient id="104" x1="0%" y1="0%" x2="100%" y2="0%"><stop offset="0%" stop-color="#00ecbc"></stop> <stop offset="100%" stop-color="#007adf"></stop></linearGradient><linearGradient id="105" x1="0%" y1="0%" x2="100%" y2="0%"><stop offset="0%" stop-color="#b88746"></stop> <stop offset="100%" stop-color="#fdf5a6"></stop></linearGradient></defs><g fill="#333333" class="icon-text-wrapper icon-svg-group iconsvg" transform="translate(25.242401123046875,71.46439361572266)"><g class="iconsvg-imagesvg" transform="translate(114.75759887695312,0)"><g><rect fill="#333333" fill-opacity="0" stroke-width="2" x="0" y="0" width="60" height="59.980806142034545" class="image-rect"></rect> <svg x="0" y="0" width="60" height="59.980806142034545" filtersec="colorsb6140298003" class="image-svg-svg primary" style="overflow: visible;"><svg xmlns="http://www.w3.org/2000/svg" viewBox="1.9394030570983887 2.091818332672119 678.0960083007812 677.8757934570312"><path fill="#cc0000" d="M 434.05 49.28 A 0.73 0.72 -81.1 0 0 433.10 49.98 L 433.19 397.97 Q 433.19 399.38 431.78 399.38 L 403.83 399.35 A 0.77 0.76 90.0 0 1 403.07 398.58 L 403.11 8.43 Q 403.11 7.71 403.82 7.84 Q 461.94 18.92 511.92 48.43 Q 589.27 94.10 634.31 171.38 Q 666.13 225.98 675.91 288.53 Q 678.36 304.20 678.75 311.96 Q 678.98 316.38 679.44 320.64 Q 679.94 325.17 679.98 329.29 Q 680.10 340.72 679.96 352.40 C 679.90 357.93 679.10 363.17 678.88 368.69 Q 678.75 371.92 678.38 375.27 Q 674.28 411.99 664.67 442.21 Q 638.60 524.14 575.89 585.24 Q 568.94 592.02 561.17 598.58 Q 479.39 667.68 373.10 678.49 C 368.57 678.95 364.11 678.93 359.64 679.50 Q 357.04 679.84 354.19 679.87 C 342.65 679.97 331.40 680.19 319.57 679.28 Q 310.55 678.58 302.57 677.65 Q 211.28 667.06 137.08 611.59 Q 115.68 595.58 96.42 575.39 Q 42.29 518.66 18.12 444.25 Q 7.64 412.00 3.60 374.09 Q 3.13 369.72 3.02 365.37 C 2.93 361.53 2.01 357.81 2.01 353.98 Q 1.99 342.29 1.94 330.28 Q 1.92 325.65 2.57 321.14 C 3.20 316.79 3.03 312.49 3.51 308.03 Q 14.81 201.96 83.44 120.95 Q 107.29 92.79 137.94 69.82 Q 213.39 13.28 308.60 3.49 Q 312.45 3.09 316.38 2.97 C 320.11 2.85 323.76 2.24 327.56 2.19 Q 340.17 2.01 351.93 2.16 C 358.75 2.24 365.47 3.25 372.20 3.30 A 1.28 1.28 0.0 0 1 373.47 4.57 L 373.57 35.57 A 1.09 1.09 0.0 0 1 372.25 36.64 C 366.95 35.47 361.85 35.77 356.44 35.21 C 349.15 34.45 341.56 34.73 334.25 34.75 C 328.37 34.77 322.61 35.44 316.43 35.84 Q 307.12 36.43 296.17 38.06 C 233.63 47.39 176.61 75.34 131.14 118.34 Q 57.61 187.91 39.30 288.68 Q 37.54 298.37 36.53 308.68 Q 34.35 330.86 34.85 350.80 Q 35.03 357.60 37.00 376.63 Q 40.63 411.74 54.27 447.91 Q 78.35 511.80 125.92 558.69 Q 133.50 566.17 140.55 572.23 Q 214.06 635.43 311.01 645.74 Q 315.73 646.25 320.78 646.37 C 325.09 646.48 329.19 647.22 333.58 647.28 Q 340.84 647.38 347.76 647.24 Q 362.76 646.93 384.44 643.92 Q 449.23 634.91 504.83 599.51 Q 568.66 558.87 607.10 492.38 Q 612.14 483.66 616.61 474.40 Q 639.08 427.83 644.94 377.18 Q 646.55 363.31 647.04 352.35 Q 647.44 343.36 647.27 332.81 C 647.19 327.72 646.31 322.96 646.21 317.91 Q 646.15 314.90 645.84 311.79 Q 638.28 235.75 596.77 172.77 Q 571.31 134.12 534.84 104.16 Q 489.60 66.99 434.05 49.28 Z"></path><path fill="#cc0000" d="M 245.74 214.00 Q 248.06 214.11 250.19 214.33 C 304.47 220.00 347.81 259.36 359.10 312.70 C 359.83 316.13 360.10 319.54 360.75 322.97 Q 361.15 325.05 361.21 327.27 Q 361.59 341.94 360.98 348.27 Q 357.87 380.25 338.67 407.28 Q 337.99 408.24 337.33 407.26 Q 329.38 395.40 320.89 382.90 Q 319.92 381.46 320.75 379.85 Q 327.25 367.27 329.43 354.94 Q 330.65 348.03 331.42 340.02 Q 331.81 335.97 331.03 328.47 C 328.20 301.32 315.56 278.52 293.58 261.99 Q 285.63 256.01 276.62 252.03 Q 250.25 240.36 222.42 245.38 C 185.59 252.01 156.13 279.49 148.21 316.27 Q 140.73 350.99 157.48 381.59 C 169.98 404.43 191.71 420.70 216.66 426.59 Q 231.15 430.01 244.23 429.30 Q 245.70 429.22 246.59 430.53 Q 256.15 444.50 263.82 456.21 Q 264.13 456.69 263.57 456.81 Q 257.60 458.17 252.99 458.63 C 241.39 459.81 229.22 459.73 217.75 457.70 C 169.38 449.12 132.87 415.26 119.74 367.94 C 118.55 363.66 117.97 359.38 117.12 355.07 Q 116.57 352.29 116.35 349.42 Q 115.24 334.99 116.38 324.10 Q 120.04 289.40 141.67 260.97 C 162.89 233.07 197.00 215.58 231.59 213.99 Q 238.77 213.66 245.74 214.00 Z"></path><path fill="#cc0000" d="M 307.35 467.90 L 257.69 394.02 A 0.67 0.67 0.0 0 1 257.89 393.08 L 281.51 377.95 A 0.67 0.67 0.0 0 1 282.43 378.14 L 342.55 467.27 A 0.67 0.67 0.0 0 1 341.99 468.32 L 307.91 468.20 A 0.67 0.67 0.0 0 1 307.35 467.90 Z"></path><rect fill="#cc0000" x="403" y="429.42" width="163.4" height="30.04" rx=".74"></rect></svg></svg> </g></g> <g transform="translate(0,66.98080444335938)"><g fill-rule="" class="tp-name iconsvg-namesvg" transform="translate(0,0)"><g transform="scale(1.2400000000000002)"><g><path d="M5.76-4.24L5.76-13.78 15.29-13.78 15.29-4.24 14.25-4.24 12.72-7.42 7.92-7.42 9.5-4.24 5.76-4.24ZM4.7 0L11.61 0 13.31 3.44 17.95 3.44 16.29 0 16.35 0Q17.67 0 18.6-0.94L18.6-0.94Q19.53-1.86 19.53-3.18L19.53-3.18 19.53-14.83Q19.53-16.15 18.6-17.09L18.6-17.09Q17.67-18.02 16.35-18.02L16.35-18.02 4.7-18.02Q3.38-18.02 2.46-17.09L2.46-17.09Q1.52-16.15 1.52-14.83L1.52-14.83 1.52-3.18Q1.52-1.86 2.46-0.94L2.46-0.94Q3.38 0 4.7 0L4.7 0ZM25.74 0L37.4 0Q38.71 0 39.65-0.94L39.65-0.94Q40.57-1.86 40.57-3.18L40.57-3.18 40.57-18.01 36.33-18.01 36.33-4.24 26.8-4.24 26.8-18.01 22.56-18.01 22.56-3.18Q22.56-1.86 23.5-0.94L23.5-0.94Q24.43 0 25.74 0L25.74 0ZM56.92-18.01L52.03-18.01 43.61 0 48.24 0 54.48-13.04 60.95 0 65.58 0 56.92-18.01ZM87.69-18.01L83.45-18.01 83.45-6.26 73.4-18.01 68.62-18.01 68.62 0 72.86 0 72.86-11.76 82.91 0 87.69 0 87.69-18.01ZM108.74-18.01L90.73-18.01 90.73-13.77 97.61-13.77 97.61 0 101.85 0 101.85-13.77 108.74-13.77 108.74-18.01ZM118.76-18.01L113.86-18.01 105.45 0 110.08 0 116.32-13.04 122.78 0 127.42 0 118.76-18.01Z" transform="translate(-1.5199999809265137, 18.020000457763672)"></path></g> <g fill="#333333" transform="translate(128.9000015258789,0)"><g transform="scale(1)"><path d="M5.76-18.01L1.52-18.01 1.52 0 17.95 0 17.95-4.24 5.76-4.24 5.76-18.01ZM38.99-18.01L20.98-18.01 20.98 0 38.99 0 38.99-4.24 25.22-4.24 25.22-6.88 38.99-6.88 38.99-11.12 25.22-11.12 25.22-13.77 38.99-13.77 38.99-18.01ZM55.34-18.01L50.45-18.01 42.03 0 46.66 0 52.9-13.04 59.37 0 64 0 55.34-18.01ZM71.28-11.12L71.28-13.77 80.29-13.77 80.29-11.12 71.28-11.12ZM71.28 0L71.28-6.88 81.34-6.88Q82.65-6.88 83.59-7.82L83.59-7.82Q84.53-8.76 84.53-10.06L84.53-10.06 84.53-14.83Q84.53-16.15 83.59-17.09L83.59-17.09Q82.65-18.01 81.34-18.01L81.34-18.01 67.04-18.01 67.04 0 71.28 0ZM106.1-3.18L106.1-8.49Q106.1-9.43 105.52-10.15L105.52-10.15Q104.95-10.87 104.03-11.07L104.03-11.07 103.8-11.12 91.8-11.14 91.8-13.77 101.86-13.77 101.86-12.19 106.1-12.19 106.1-14.83Q106.1-16.15 105.18-17.09L105.18-17.09Q104.24-18.01 102.93-18.01L102.93-18.01 90.74-18.01Q89.42-18.01 88.5-17.09L88.5-17.09Q87.56-16.15 87.56-14.83L87.56-14.83 87.56-9.54Q87.56-8.59 88.15-7.87L88.15-7.87Q88.73-7.15 89.64-6.95L89.64-6.95 89.87-6.9 101.86-6.88 101.86-4.24 91.8-4.24 91.8-5.83 87.56-5.83 87.56-3.18Q87.56-1.86 88.5-0.94L88.5-0.94Q89.42 0 90.74 0L90.74 0 102.93 0Q104.24 0 105.18-0.94L105.18-0.94Q106.1-1.86 106.1-3.18L106.1-3.18Z" transform="translate(-1.5199999809265137, 18.020000457763672)"></path></g></g></g></g> <g fill-rule="" class="tp-slogan iconsvg-slogansvg" fill="#333333" transform="translate(88.60599517822266,32.61040115356445)"> <g transform="scale(1, 1)"><g transform="scale(2.9200000000000017)"><path d="M0.34 0L0.34-2.47L0.65-2.47L0.65 0L0.34 0ZM3.84 0L3.84-2.20L3.09-2.20L3.09-2.47L4.90-2.47L4.90-2.20L4.15-2.20L4.15 0L3.84 0ZM9.92-0.32L10.11-0.54Q10.24-0.40 10.42-0.31Q10.60-0.23 10.79-0.23L10.79-0.23Q11.03-0.23 11.17-0.34Q11.31-0.45 11.31-0.63L11.31-0.63Q11.31-0.73 11.27-0.79Q11.24-0.86 11.19-0.90Q11.13-0.95 11.06-0.99Q10.98-1.03 10.90-1.07L10.90-1.07L10.54-1.22Q10.46-1.26 10.37-1.31Q10.28-1.36 10.20-1.44Q10.13-1.52 10.09-1.62Q10.04-1.72 10.04-1.86L10.04-1.86Q10.04-2.00 10.10-2.12Q10.16-2.24 10.26-2.33Q10.37-2.41 10.51-2.46Q10.65-2.51 10.82-2.51L10.82-2.51Q11.04-2.51 11.23-2.43Q11.41-2.34 11.55-2.21L11.55-2.21L11.38-2.00Q11.26-2.11 11.13-2.18Q10.99-2.24 10.82-2.24L10.82-2.24Q10.61-2.24 10.48-2.14Q10.36-2.05 10.36-1.88L10.36-1.88Q10.36-1.79 10.39-1.72Q10.43-1.66 10.49-1.61Q10.55-1.57 10.62-1.53Q10.69-1.50 10.77-1.47L10.77-1.47L11.12-1.32Q11.22-1.27 11.32-1.21Q11.41-1.15 11.48-1.08Q11.55-1.00 11.59-0.90Q11.62-0.79 11.62-0.66L11.62-0.66Q11.62-0.51 11.57-0.38Q11.51-0.26 11.40-0.16Q11.29-0.06 11.14-0.01Q10.98 0.05 10.79 0.05L10.79 0.05Q10.53 0.05 10.31-0.05Q10.08-0.15 9.92-0.32L9.92-0.32ZM14.11 0L14.11-2.47L15.53-2.47L15.53-2.20L14.42-2.20L14.42-1.43L15.36-1.43L15.36-1.16L14.42-1.16L14.42-0.27L15.57-0.27L15.57 0L14.11 0ZM18.40-2.21L18.40-1.30L18.82-1.30Q19.11-1.30 19.26-1.42Q19.41-1.53 19.41-1.77L19.41-1.77Q19.41-2.02 19.26-2.12Q19.11-2.21 18.82-2.21L18.82-2.21L18.40-2.21ZM19.80 0L19.44 0L18.85-1.04L18.40-1.04L18.40 0L18.09 0L18.09-2.47L18.86-2.47Q19.05-2.47 19.21-2.43Q19.37-2.40 19.48-2.31Q19.60-2.23 19.66-2.10Q19.73-1.97 19.73-1.77L19.73-1.77Q19.73-1.49 19.58-1.31Q19.43-1.14 19.17-1.08L19.17-1.08L19.80 0ZM22.67 0L21.88-2.47L22.22-2.47L22.61-1.14Q22.68-0.91 22.73-0.73Q22.78-0.54 22.85-0.32L22.85-0.32L22.87-0.32Q22.94-0.54 22.99-0.73Q23.04-0.91 23.11-1.14L23.11-1.14L23.50-2.47L23.82-2.47L23.04 0L22.67 0ZM26.16 0L26.16-2.47L26.47-2.47L26.47 0L26.16 0ZM29.01-1.23L29.01-1.23Q29.01-1.53 29.09-1.77Q29.17-2.00 29.32-2.17Q29.46-2.33 29.67-2.42Q29.87-2.51 30.10-2.51L30.10-2.51Q30.33-2.51 30.50-2.42Q30.67-2.33 30.78-2.21L30.78-2.21L30.60-2.01Q30.50-2.11 30.38-2.18Q30.27-2.24 30.11-2.24L30.11-2.24Q29.93-2.24 29.79-2.17Q29.64-2.10 29.54-1.97Q29.44-1.84 29.39-1.65Q29.33-1.47 29.33-1.24L29.33-1.24Q29.33-1.01 29.38-0.82Q29.44-0.64 29.54-0.50Q29.63-0.37 29.77-0.30Q29.92-0.23 30.09-0.23L30.09-0.23Q30.27-0.23 30.41-0.30Q30.54-0.37 30.66-0.50L30.66-0.50L30.84-0.31Q30.69-0.14 30.51-0.05Q30.32 0.05 30.08 0.05L30.08 0.05Q29.85 0.05 29.65-0.04Q29.46-0.13 29.31-0.29Q29.17-0.45 29.09-0.69Q29.01-0.93 29.01-1.23ZM33.30 0L33.30-2.47L34.72-2.47L34.72-2.20L33.61-2.20L33.61-1.43L34.54-1.43L34.54-1.16L33.61-1.16L33.61-0.27L34.75-0.27L34.75 0L33.30 0ZM37.10-0.32L37.28-0.54Q37.42-0.40 37.59-0.31Q37.77-0.23 37.97-0.23L37.97-0.23Q38.21-0.23 38.34-0.34Q38.48-0.45 38.48-0.63L38.48-0.63Q38.48-0.73 38.45-0.79Q38.42-0.86 38.36-0.90Q38.31-0.95 38.23-0.99Q38.16-1.03 38.07-1.07L38.07-1.07L37.72-1.22Q37.63-1.26 37.54-1.31Q37.45-1.36 37.38-1.44Q37.31-1.52 37.26-1.62Q37.22-1.72 37.22-1.86L37.22-1.86Q37.22-2.00 37.28-2.12Q37.33-2.24 37.44-2.33Q37.54-2.41 37.68-2.46Q37.82-2.51 37.99-2.51L37.99-2.51Q38.21-2.51 38.40-2.43Q38.59-2.34 38.72-2.21L38.72-2.21L38.55-2.00Q38.44-2.11 38.30-2.18Q38.16-2.24 37.99-2.24L37.99-2.24Q37.78-2.24 37.66-2.14Q37.53-2.05 37.53-1.88L37.53-1.88Q37.53-1.79 37.57-1.72Q37.60-1.66 37.66-1.61Q37.72-1.57 37.80-1.53Q37.87-1.50 37.94-1.47L37.94-1.47L38.29-1.32Q38.40-1.27 38.49-1.21Q38.59-1.15 38.65-1.08Q38.72-1.00 38.76-0.90Q38.80-0.79 38.80-0.66L38.80-0.66Q38.80-0.51 38.74-0.38Q38.68-0.26 38.57-0.16Q38.47-0.06 38.31-0.01Q38.16 0.05 37.96 0.05L37.96 0.05Q37.70 0.05 37.48-0.05Q37.26-0.15 37.10-0.32L37.10-0.32Z" transform="translate(-0.3383953376642367, 2.51164539510789)"></path></g></g></g></g></g><defs v-gra="od"></defs></g></svg>