<svg xmlns="http://www.w3.org/2000/svg" xmlns:xlink="http://www.w3.org/1999/xlink" version="1.0" x="0" y="0" width="2400" height="648.0779026990527" viewBox="50.241796264648436 92.66139770507813 239.51640747070311 64.67720458984375" preserveAspectRatio="xMidYMid meet" color-interpolation-filters="sRGB"><g><defs><linearGradient id="92" x1="0%" y1="0%" x2="100%" y2="0%"><stop offset="0%" stop-color="#fa71cd"></stop> <stop offset="100%" stop-color="#9b59b6"></stop></linearGradient><linearGradient id="93" x1="0%" y1="0%" x2="100%" y2="0%"><stop offset="0%" stop-color="#f9d423"></stop> <stop offset="100%" stop-color="#f83600"></stop></linearGradient><linearGradient id="94" x1="0%" y1="0%" x2="100%" y2="0%"><stop offset="0%" stop-color="#0064d2"></stop> <stop offset="100%" stop-color="#1cb0f6"></stop></linearGradient><linearGradient id="95" x1="0%" y1="0%" x2="100%" y2="0%"><stop offset="0%" stop-color="#f00978"></stop> <stop offset="100%" stop-color="#3f51b1"></stop></linearGradient><linearGradient id="96" x1="0%" y1="0%" x2="100%" y2="0%"><stop offset="0%" stop-color="#7873f5"></stop> <stop offset="100%" stop-color="#ec77ab"></stop></linearGradient><linearGradient id="97" x1="0%" y1="0%" x2="100%" y2="0%"><stop offset="0%" stop-color="#f9d423"></stop> <stop offset="100%" stop-color="#e14fad"></stop></linearGradient><linearGradient id="98" x1="0%" y1="0%" x2="100%" y2="0%"><stop offset="0%" stop-color="#009efd"></stop> <stop offset="100%" stop-color="#2af598"></stop></linearGradient><linearGradient id="99" x1="0%" y1="0%" x2="100%" y2="0%"><stop offset="0%" stop-color="#ffcc00"></stop> <stop offset="100%" stop-color="#00b140"></stop></linearGradient><linearGradient id="100" x1="0%" y1="0%" x2="100%" y2="0%"><stop offset="0%" stop-color="#d51007"></stop> <stop offset="100%" stop-color="#ff8177"></stop></linearGradient><linearGradient id="102" x1="0%" y1="0%" x2="100%" y2="0%"><stop offset="0%" stop-color="#a2b6df"></stop> <stop offset="100%" stop-color="#0c3483"></stop></linearGradient><linearGradient id="103" x1="0%" y1="0%" x2="100%" y2="0%"><stop offset="0%" stop-color="#7ac5d8"></stop> <stop offset="100%" stop-color="#eea2a2"></stop></linearGradient><linearGradient id="104" x1="0%" y1="0%" x2="100%" y2="0%"><stop offset="0%" stop-color="#00ecbc"></stop> <stop offset="100%" stop-color="#007adf"></stop></linearGradient><linearGradient id="105" x1="0%" y1="0%" x2="100%" y2="0%"><stop offset="0%" stop-color="#b88746"></stop> <stop offset="100%" stop-color="#fdf5a6"></stop></linearGradient></defs><g fill="#444" class="icon-text-wrapper icon-svg-group iconsvg" transform="translate(52.589996337890625,95.00959777832031)"><g class="iconsvg-imagesvg" transform="translate(0,0)"><g><rect fill="#444" fill-opacity="0" stroke-width="2" x="0" y="0" width="60" height="59.980806142034545" class="image-rect"></rect> <svg filter="url(#colors4722432109)" x="0" y="0" width="60" height="59.980806142034545" filtersec="colorsf404370432" class="image-svg-svg primary" style="overflow: visible;"><svg xmlns="http://www.w3.org/2000/svg" viewBox="1.9394030570983887 2.091818332672119 678.0960083007812 677.8757934570312"><path fill="#cc0000" d="M 434.05 49.28 A 0.73 0.72 -81.1 0 0 433.10 49.98 L 433.19 397.97 Q 433.19 399.38 431.78 399.38 L 403.83 399.35 A 0.77 0.76 90.0 0 1 403.07 398.58 L 403.11 8.43 Q 403.11 7.71 403.82 7.84 Q 461.94 18.92 511.92 48.43 Q 589.27 94.10 634.31 171.38 Q 666.13 225.98 675.91 288.53 Q 678.36 304.20 678.75 311.96 Q 678.98 316.38 679.44 320.64 Q 679.94 325.17 679.98 329.29 Q 680.10 340.72 679.96 352.40 C 679.90 357.93 679.10 363.17 678.88 368.69 Q 678.75 371.92 678.38 375.27 Q 674.28 411.99 664.67 442.21 Q 638.60 524.14 575.89 585.24 Q 568.94 592.02 561.17 598.58 Q 479.39 667.68 373.10 678.49 C 368.57 678.95 364.11 678.93 359.64 679.50 Q 357.04 679.84 354.19 679.87 C 342.65 679.97 331.40 680.19 319.57 679.28 Q 310.55 678.58 302.57 677.65 Q 211.28 667.06 137.08 611.59 Q 115.68 595.58 96.42 575.39 Q 42.29 518.66 18.12 444.25 Q 7.64 412.00 3.60 374.09 Q 3.13 369.72 3.02 365.37 C 2.93 361.53 2.01 357.81 2.01 353.98 Q 1.99 342.29 1.94 330.28 Q 1.92 325.65 2.57 321.14 C 3.20 316.79 3.03 312.49 3.51 308.03 Q 14.81 201.96 83.44 120.95 Q 107.29 92.79 137.94 69.82 Q 213.39 13.28 308.60 3.49 Q 312.45 3.09 316.38 2.97 C 320.11 2.85 323.76 2.24 327.56 2.19 Q 340.17 2.01 351.93 2.16 C 358.75 2.24 365.47 3.25 372.20 3.30 A 1.28 1.28 0.0 0 1 373.47 4.57 L 373.57 35.57 A 1.09 1.09 0.0 0 1 372.25 36.64 C 366.95 35.47 361.85 35.77 356.44 35.21 C 349.15 34.45 341.56 34.73 334.25 34.75 C 328.37 34.77 322.61 35.44 316.43 35.84 Q 307.12 36.43 296.17 38.06 C 233.63 47.39 176.61 75.34 131.14 118.34 Q 57.61 187.91 39.30 288.68 Q 37.54 298.37 36.53 308.68 Q 34.35 330.86 34.85 350.80 Q 35.03 357.60 37.00 376.63 Q 40.63 411.74 54.27 447.91 Q 78.35 511.80 125.92 558.69 Q 133.50 566.17 140.55 572.23 Q 214.06 635.43 311.01 645.74 Q 315.73 646.25 320.78 646.37 C 325.09 646.48 329.19 647.22 333.58 647.28 Q 340.84 647.38 347.76 647.24 Q 362.76 646.93 384.44 643.92 Q 449.23 634.91 504.83 599.51 Q 568.66 558.87 607.10 492.38 Q 612.14 483.66 616.61 474.40 Q 639.08 427.83 644.94 377.18 Q 646.55 363.31 647.04 352.35 Q 647.44 343.36 647.27 332.81 C 647.19 327.72 646.31 322.96 646.21 317.91 Q 646.15 314.90 645.84 311.79 Q 638.28 235.75 596.77 172.77 Q 571.31 134.12 534.84 104.16 Q 489.60 66.99 434.05 49.28 Z"></path><path fill="#cc0000" d="M 245.74 214.00 Q 248.06 214.11 250.19 214.33 C 304.47 220.00 347.81 259.36 359.10 312.70 C 359.83 316.13 360.10 319.54 360.75 322.97 Q 361.15 325.05 361.21 327.27 Q 361.59 341.94 360.98 348.27 Q 357.87 380.25 338.67 407.28 Q 337.99 408.24 337.33 407.26 Q 329.38 395.40 320.89 382.90 Q 319.92 381.46 320.75 379.85 Q 327.25 367.27 329.43 354.94 Q 330.65 348.03 331.42 340.02 Q 331.81 335.97 331.03 328.47 C 328.20 301.32 315.56 278.52 293.58 261.99 Q 285.63 256.01 276.62 252.03 Q 250.25 240.36 222.42 245.38 C 185.59 252.01 156.13 279.49 148.21 316.27 Q 140.73 350.99 157.48 381.59 C 169.98 404.43 191.71 420.70 216.66 426.59 Q 231.15 430.01 244.23 429.30 Q 245.70 429.22 246.59 430.53 Q 256.15 444.50 263.82 456.21 Q 264.13 456.69 263.57 456.81 Q 257.60 458.17 252.99 458.63 C 241.39 459.81 229.22 459.73 217.75 457.70 C 169.38 449.12 132.87 415.26 119.74 367.94 C 118.55 363.66 117.97 359.38 117.12 355.07 Q 116.57 352.29 116.35 349.42 Q 115.24 334.99 116.38 324.10 Q 120.04 289.40 141.67 260.97 C 162.89 233.07 197.00 215.58 231.59 213.99 Q 238.77 213.66 245.74 214.00 Z"></path><path fill="#cc0000" d="M 307.35 467.90 L 257.69 394.02 A 0.67 0.67 0.0 0 1 257.89 393.08 L 281.51 377.95 A 0.67 0.67 0.0 0 1 282.43 378.14 L 342.55 467.27 A 0.67 0.67 0.0 0 1 341.99 468.32 L 307.91 468.20 A 0.67 0.67 0.0 0 1 307.35 467.90 Z"></path><rect fill="#cc0000" x="403" y="429.42" width="163.4" height="30.04" rx=".74"></rect></svg></svg> <defs><filter id="colors4722432109"><feColorMatrix type="matrix" values="0 0 0 0 0.265625  0 0 0 0 0.265625  0 0 0 0 0.265625  0 0 0 1 0" class="icon-feColorMatrix "></feColorMatrix></filter> <filter id="colorsf404370432"><feColorMatrix type="matrix" values="0 0 0 0 0.99609375  0 0 0 0 0.99609375  0 0 0 0 0.99609375  0 0 0 1 0" class="icon-fecolormatrix"></feColorMatrix></filter> <filter id="colorsb8232372552"><feColorMatrix type="matrix" values="0 0 0 0 0  0 0 0 0 0  0 0 0 0 0  0 0 0 1 0" class="icon-fecolormatrix"></feColorMatrix></filter></defs></g></g> <g transform="translate(67,15.540399551391602)"><g fill-rule="" class="tp-name iconsvg-namesvg" transform="translate(0,0)"><g transform="scale(1)"><g><path d="M4.14-3.05L4.14-9.9 10.99-9.9 10.99-3.05 10.24-3.05 9.14-5.33 5.69-5.33 6.83-3.05 4.14-3.05ZM3.37 0L8.34 0 9.57 2.47 12.9 2.47 11.71 0 11.75 0Q12.7 0 13.37-0.67L13.37-0.67Q14.03-1.34 14.03-2.28L14.03-2.28 14.03-10.66Q14.03-11.6 13.37-12.28L13.37-12.28Q12.7-12.95 11.75-12.95L11.75-12.95 3.37-12.95Q2.43-12.95 1.76-12.28L1.76-12.28Q1.09-11.6 1.09-10.66L1.09-10.66 1.09-2.28Q1.09-1.34 1.76-0.67L1.76-0.67Q2.43 0 3.37 0L3.37 0ZM18.5 0L26.88 0Q27.82 0 28.49-0.67L28.49-0.67Q29.16-1.34 29.16-2.28L29.16-2.28 29.16-12.94 26.11-12.94 26.11-3.05 19.26-3.05 19.26-12.94 16.22-12.94 16.22-2.28Q16.22-1.34 16.89-0.67L16.89-0.67Q17.55 0 18.5 0L18.5 0ZM40.91-12.94L37.39-12.94 31.34 0 34.67 0 39.15-9.37 43.8 0 47.13 0 40.91-12.94ZM63.02-12.94L59.97-12.94 59.97-4.5 52.75-12.94 49.31-12.94 49.31 0 52.36 0 52.36-8.45 59.58 0 63.02 0 63.02-12.94ZM78.14-12.94L65.2-12.94 65.2-9.9 70.15-9.9 70.15 0 73.19 0 73.19-9.9 78.14-9.9 78.14-12.94ZM85.35-12.94L81.83-12.94 75.78 0 79.11 0 83.59-9.37 88.24 0 91.57 0 85.35-12.94ZM96.8-12.94L93.75-12.94 93.75 0 105.55 0 105.55-3.05 96.8-3.05 96.8-12.94ZM120.68-12.94L107.74-12.94 107.74 0 120.68 0 120.68-3.05 110.78-3.05 110.78-4.95 120.68-4.95 120.68-7.99 110.78-7.99 110.78-9.9 120.68-9.9 120.68-12.94ZM132.43-12.94L128.91-12.94 122.86 0 126.19 0 130.67-9.37 135.32 0 138.65 0 132.43-12.94ZM143.88-7.99L143.88-9.9 150.36-9.9 150.36-7.99 143.88-7.99ZM143.88 0L143.88-4.95 151.11-4.95Q152.06-4.95 152.73-5.62L152.73-5.62Q153.4-6.29 153.4-7.23L153.4-7.23 153.4-10.66Q153.4-11.6 152.73-12.28L152.73-12.28Q152.06-12.94 151.11-12.94L151.11-12.94 140.83-12.94 140.83 0 143.88 0ZM168.91-2.28L168.91-6.1Q168.91-6.78 168.49-7.29L168.49-7.29Q168.08-7.81 167.42-7.96L167.42-7.96 167.25-7.99 158.63-8 158.63-9.9 165.86-9.9 165.86-8.76 168.91-8.76 168.91-10.66Q168.91-11.6 168.24-12.28L168.24-12.28Q167.57-12.94 166.63-12.94L166.63-12.94 157.87-12.94Q156.92-12.94 156.26-12.28L156.26-12.28Q155.58-11.6 155.58-10.66L155.58-10.66 155.58-6.86Q155.58-6.18 156-5.66L156-5.66Q156.42-5.14 157.08-4.99L157.08-4.99 157.24-4.96 165.86-4.95 165.86-3.05 158.63-3.05 158.63-4.19 155.58-4.19 155.58-2.28Q155.58-1.34 156.26-0.67L156.26-0.67Q156.92 0 157.87 0L157.87 0 166.63 0Q167.57 0 168.24-0.67L168.24-0.67Q168.91-1.34 168.91-2.28L168.91-2.28Z" transform="translate(-1.090000033378601, 12.949999809265137)"></path></g> </g></g> <g fill-rule="" class="tp-slogan iconsvg-slogansvg" fill="#444" transform="translate(27.758399963378906,21.420000076293945)"> <g transform="scale(1, 1)"><g transform="scale(2.9200000000000017)"><path d="M0.34 0L0.34-2.47L0.65-2.47L0.65 0L0.34 0ZM3.84 0L3.84-2.20L3.09-2.20L3.09-2.47L4.90-2.47L4.90-2.20L4.15-2.20L4.15 0L3.84 0ZM9.92-0.32L10.11-0.54Q10.24-0.40 10.42-0.31Q10.60-0.23 10.79-0.23L10.79-0.23Q11.03-0.23 11.17-0.34Q11.31-0.45 11.31-0.63L11.31-0.63Q11.31-0.73 11.27-0.79Q11.24-0.86 11.19-0.90Q11.13-0.95 11.06-0.99Q10.98-1.03 10.90-1.07L10.90-1.07L10.54-1.22Q10.46-1.26 10.37-1.31Q10.28-1.36 10.20-1.44Q10.13-1.52 10.09-1.62Q10.04-1.72 10.04-1.86L10.04-1.86Q10.04-2.00 10.10-2.12Q10.16-2.24 10.26-2.33Q10.37-2.41 10.51-2.46Q10.65-2.51 10.82-2.51L10.82-2.51Q11.04-2.51 11.23-2.43Q11.41-2.34 11.55-2.21L11.55-2.21L11.38-2.00Q11.26-2.11 11.13-2.18Q10.99-2.24 10.82-2.24L10.82-2.24Q10.61-2.24 10.48-2.14Q10.36-2.05 10.36-1.88L10.36-1.88Q10.36-1.79 10.39-1.72Q10.43-1.66 10.49-1.61Q10.55-1.57 10.62-1.53Q10.69-1.50 10.77-1.47L10.77-1.47L11.12-1.32Q11.22-1.27 11.32-1.21Q11.41-1.15 11.48-1.08Q11.55-1.00 11.59-0.90Q11.62-0.79 11.62-0.66L11.62-0.66Q11.62-0.51 11.57-0.38Q11.51-0.26 11.40-0.16Q11.29-0.06 11.14-0.01Q10.98 0.05 10.79 0.05L10.79 0.05Q10.53 0.05 10.31-0.05Q10.08-0.15 9.92-0.32L9.92-0.32ZM14.11 0L14.11-2.47L15.53-2.47L15.53-2.20L14.42-2.20L14.42-1.43L15.36-1.43L15.36-1.16L14.42-1.16L14.42-0.27L15.57-0.27L15.57 0L14.11 0ZM18.40-2.21L18.40-1.30L18.82-1.30Q19.11-1.30 19.26-1.42Q19.41-1.53 19.41-1.77L19.41-1.77Q19.41-2.02 19.26-2.12Q19.11-2.21 18.82-2.21L18.82-2.21L18.40-2.21ZM19.80 0L19.44 0L18.85-1.04L18.40-1.04L18.40 0L18.09 0L18.09-2.47L18.86-2.47Q19.05-2.47 19.21-2.43Q19.37-2.40 19.48-2.31Q19.60-2.23 19.66-2.10Q19.73-1.97 19.73-1.77L19.73-1.77Q19.73-1.49 19.58-1.31Q19.43-1.14 19.17-1.08L19.17-1.08L19.80 0ZM22.67 0L21.88-2.47L22.22-2.47L22.61-1.14Q22.68-0.91 22.73-0.73Q22.78-0.54 22.85-0.32L22.85-0.32L22.87-0.32Q22.94-0.54 22.99-0.73Q23.04-0.91 23.11-1.14L23.11-1.14L23.50-2.47L23.82-2.47L23.04 0L22.67 0ZM26.16 0L26.16-2.47L26.47-2.47L26.47 0L26.16 0ZM29.01-1.23L29.01-1.23Q29.01-1.53 29.09-1.77Q29.17-2.00 29.32-2.17Q29.46-2.33 29.67-2.42Q29.87-2.51 30.10-2.51L30.10-2.51Q30.33-2.51 30.50-2.42Q30.67-2.33 30.78-2.21L30.78-2.21L30.60-2.01Q30.50-2.11 30.38-2.18Q30.27-2.24 30.11-2.24L30.11-2.24Q29.93-2.24 29.79-2.17Q29.64-2.10 29.54-1.97Q29.44-1.84 29.39-1.65Q29.33-1.47 29.33-1.24L29.33-1.24Q29.33-1.01 29.38-0.82Q29.44-0.64 29.54-0.50Q29.63-0.37 29.77-0.30Q29.92-0.23 30.09-0.23L30.09-0.23Q30.27-0.23 30.41-0.30Q30.54-0.37 30.66-0.50L30.66-0.50L30.84-0.31Q30.69-0.14 30.51-0.05Q30.32 0.05 30.08 0.05L30.08 0.05Q29.85 0.05 29.65-0.04Q29.46-0.13 29.31-0.29Q29.17-0.45 29.09-0.69Q29.01-0.93 29.01-1.23ZM33.30 0L33.30-2.47L34.72-2.47L34.72-2.20L33.61-2.20L33.61-1.43L34.54-1.43L34.54-1.16L33.61-1.16L33.61-0.27L34.75-0.27L34.75 0L33.30 0ZM37.10-0.32L37.28-0.54Q37.42-0.40 37.59-0.31Q37.77-0.23 37.97-0.23L37.97-0.23Q38.21-0.23 38.34-0.34Q38.48-0.45 38.48-0.63L38.48-0.63Q38.48-0.73 38.45-0.79Q38.42-0.86 38.36-0.90Q38.31-0.95 38.23-0.99Q38.16-1.03 38.07-1.07L38.07-1.07L37.72-1.22Q37.63-1.26 37.54-1.31Q37.45-1.36 37.38-1.44Q37.31-1.52 37.26-1.62Q37.22-1.72 37.22-1.86L37.22-1.86Q37.22-2.00 37.28-2.12Q37.33-2.24 37.44-2.33Q37.54-2.41 37.68-2.46Q37.82-2.51 37.99-2.51L37.99-2.51Q38.21-2.51 38.40-2.43Q38.59-2.34 38.72-2.21L38.72-2.21L38.55-2.00Q38.44-2.11 38.30-2.18Q38.16-2.24 37.99-2.24L37.99-2.24Q37.78-2.24 37.66-2.14Q37.53-2.05 37.53-1.88L37.53-1.88Q37.53-1.79 37.57-1.72Q37.60-1.66 37.66-1.61Q37.72-1.57 37.80-1.53Q37.87-1.50 37.94-1.47L37.94-1.47L38.29-1.32Q38.40-1.27 38.49-1.21Q38.59-1.15 38.65-1.08Q38.72-1.00 38.76-0.90Q38.80-0.79 38.80-0.66L38.80-0.66Q38.80-0.51 38.74-0.38Q38.68-0.26 38.57-0.16Q38.47-0.06 38.31-0.01Q38.16 0.05 37.96 0.05L37.96 0.05Q37.70 0.05 37.48-0.05Q37.26-0.15 37.10-0.32L37.10-0.32Z" transform="translate(-0.3383953376642367, 2.51164539510789)"></path></g></g></g></g></g><defs v-gra="od"></defs></g></svg>